<svg width="22" height="27" viewBox="0 0 22 27" fill="none" xmlns="http://www.w3.org/2000/svg">
<path d="M8.12486 16.6663C8.12486 15.9463 8.23286 15.2983 8.44886 14.7223C8.68886 14.1463 8.97686 13.6303 9.31286 13.1743C9.67286 12.7183 10.0449 12.3103 10.4289 11.9503C10.8369 11.5663 11.2089 11.2063 11.5449 10.8703C11.9049 10.5343 12.1929 10.1983 12.4089 9.86233C12.6489 9.52633 12.7689 9.17833 12.7689 8.81833C12.7689 8.26633 12.5289 7.84633 12.0489 7.55833C11.5929 7.27033 11.0289 7.12633 10.3569 7.12633C9.58886 7.12633 8.86886 7.34233 8.19686 7.77433C7.52486 8.20633 6.99686 8.80633 6.61286 9.57433L0.204863 6.37033C1.11686 4.64233 2.49686 3.23833 4.34486 2.15833C6.19286 1.07833 8.55686 0.53833 11.4369 0.53833C13.3329 0.53833 15.0129 0.80233 16.4769 1.33033C17.9649 1.83433 19.1409 2.60233 20.0049 3.63433C20.8689 4.64233 21.3009 5.90233 21.3009 7.41433C21.3009 8.32633 21.1569 9.13033 20.8689 9.82633C20.6049 10.5223 20.2449 11.1343 19.7889 11.6623C19.3569 12.1663 18.9009 12.6343 18.4209 13.0663C17.9409 13.4983 17.4729 13.9063 17.0169 14.2903C16.5849 14.6503 16.2249 15.0223 15.9369 15.4063C15.6729 15.7903 15.5409 16.2103 15.5409 16.6663H8.12486ZM11.8329 26.6743C10.4409 26.6743 9.30086 26.2543 8.41286 25.4143C7.52486 24.5503 7.08086 23.5303 7.08086 22.3543C7.08086 21.1543 7.52486 20.1463 8.41286 19.3303C9.30086 18.5143 10.4409 18.1063 11.8329 18.1063C13.2489 18.1063 14.3889 18.5143 15.2529 19.3303C16.1409 20.1463 16.5849 21.1543 16.5849 22.3543C16.5849 23.5303 16.1409 24.5503 15.2529 25.4143C14.3889 26.2543 13.2489 26.6743 11.8329 26.6743Z" fill="#961E82"/>
</svg>
