<svg width="56" height="56" viewBox="0 0 56 56" fill="none" xmlns="http://www.w3.org/2000/svg">
<mask id="mask0_34_127" style="mask-type:luminance" maskUnits="userSpaceOnUse" x="0" y="0" width="56" height="56">
<path d="M0 0H56V56H0V0Z" fill="white"/>
</mask>
<g mask="url(#mask0_34_127)">
<path d="M42.7369 20.6316C42.7369 36.8421 50.1053 35.3684 50.1053 42.7368C50.1053 42.7368 50.1053 45.6842 47.1579 45.6842H8.84214C5.89478 45.6842 5.89478 42.7368 5.89478 42.7368C5.89478 35.3684 13.2632 36.8421 13.2632 20.6316C13.2632 12.4939 19.8624 5.89473 28 5.89473C36.1377 5.89473 42.7369 12.4939 42.7369 20.6316Z" fill="#961E82"/>
<path d="M32.4212 5.89474C32.4212 4.72221 31.9554 3.5977 31.1263 2.76859C30.2972 1.93948 29.1727 1.47369 28.0002 1.47369C26.8276 1.47369 25.7031 1.93948 24.874 2.76859C24.0449 3.5977 23.5791 4.72221 23.5791 5.89474C23.5791 7.06728 24.0449 8.19179 24.874 9.0209C25.7031 9.85001 26.8276 10.3158 28.0002 10.3158C29.1727 10.3158 30.2972 9.85001 31.1263 9.0209C31.9554 8.19179 32.4212 7.06728 32.4212 5.89474Z" fill="#961E82"/>
<path d="M28 54.5264C29.5633 54.5264 31.0627 53.9053 32.1682 52.7998C33.2736 51.6944 33.8947 50.195 33.8947 48.6316H22.1052C22.1052 50.195 22.7263 51.6944 23.8318 52.7998C24.9372 53.9053 26.4366 54.5264 28 54.5264Z" fill="#961E82"/>
</g>
</svg>
