<svg width="44" height="32" viewBox="0 0 44 32" fill="none" xmlns="http://www.w3.org/2000/svg">
<path d="M39.406 5.7948C33.5167 -4.57821 24.6438 2.65098 24.6438 2.65098C24.0671 3.11777 23.7509 3.50077 23.0291 3.50077H20.6556C19.9338 3.50077 19.6176 3.10181 19.0447 2.65098C19.0447 2.65098 10.1717 -4.57023 4.28244 5.80677C-1.60682 16.1838 0.766742 27.4784 0.766742 27.4784C1.18342 30.2432 2.5525 32.0904 5.13812 31.867C7.72374 31.6436 13.3154 24.4104 13.3154 24.4104C13.8777 23.7747 14.6461 23.3949 15.462 23.3491H28.219C29.039 23.3987 29.8094 23.7861 30.3693 24.4303C30.3693 24.4303 35.9498 31.6475 38.554 31.8789C41.1583 32.1103 42.5087 30.2831 42.9217 27.4904C42.918 27.4784 45.3101 16.1678 39.406 5.7948ZM17.2329 14.2568H14.1785V17.4126C13.6916 17.7619 13.1161 17.9417 12.5304 17.9272C12.2664 17.9412 12.0025 17.8987 11.754 17.8021C11.5056 17.7055 11.2775 17.5568 11.0832 17.3647V14.2568H8.19622C7.90594 13.8402 7.74462 13.3365 7.7349 12.8165C7.68952 12.1603 7.82815 11.5045 8.13298 10.9334H11.1874V7.65795C11.6661 7.41701 12.1916 7.30211 12.7201 7.32283C13.2619 7.3418 13.7945 7.47748 14.2864 7.72179V10.9334H17.1696C17.4777 11.3817 17.6667 11.9111 17.7165 12.4654C17.6939 13.0959 17.5279 13.7109 17.2329 14.2568ZM29.7555 17.8474C29.2772 17.8474 28.8097 17.6954 28.412 17.4104C28.0143 17.1255 27.7044 16.7204 27.5213 16.2466C27.3383 15.7727 27.2904 15.2513 27.3837 14.7483C27.477 14.2452 27.7074 13.7832 28.0455 13.4205C28.3837 13.0578 28.8146 12.8108 29.2837 12.7108C29.7528 12.6107 30.239 12.6621 30.6809 12.8583C31.1228 13.0546 31.5004 13.387 31.7661 13.8135C32.0319 14.2399 32.1737 14.7413 32.1737 15.2542C32.1752 15.5956 32.1137 15.9339 31.9928 16.2497C31.8718 16.5654 31.6939 16.8525 31.4691 17.0942C31.2444 17.336 30.9773 17.5277 30.6832 17.6583C30.3891 17.789 30.0738 17.856 29.7555 17.8554V17.8474ZM29.7555 10.714C29.2772 10.714 28.8097 10.5619 28.412 10.277C28.0143 9.99201 27.7044 9.587 27.5213 9.11315C27.3383 8.63929 27.2904 8.11787 27.3837 7.61483C27.477 7.11179 27.7074 6.64972 28.0455 6.28704C28.3837 5.92437 28.8146 5.67739 29.2837 5.57733C29.7528 5.47726 30.239 5.52862 30.6809 5.7249C31.1228 5.92117 31.5004 6.25356 31.7661 6.68002C32.0319 7.10647 32.1737 7.60785 32.1737 8.12075C32.1747 8.46178 32.1128 8.79967 31.9917 9.11499C31.8706 9.43032 31.6925 9.71688 31.4678 9.95821C31.2431 10.1995 30.9762 10.3909 30.6823 10.5213C30.3885 10.6517 30.0735 10.7185 29.7555 10.718V10.714ZM35.775 14.544C35.2967 14.544 34.8291 14.3919 34.4315 14.107C34.0338 13.822 33.7239 13.417 33.5408 12.9432C33.3578 12.4693 33.3099 11.9479 33.4032 11.4449C33.4965 10.9418 33.7268 10.4798 34.065 10.1171C34.4032 9.75441 34.8341 9.50742 35.3032 9.40736C35.7723 9.3073 36.2585 9.35866 36.7004 9.55493C37.1422 9.75121 37.5199 10.0836 37.7856 10.5101C38.0513 10.9365 38.1932 11.4379 38.1932 11.9508C38.1941 12.2915 38.1324 12.629 38.0115 12.9441C37.8906 13.2592 37.7129 13.5456 37.4886 13.7868C37.2643 14.0281 36.9978 14.2196 36.7044 14.3502C36.411 14.4808 36.0964 14.548 35.7787 14.548L35.775 14.544Z" fill="#961E82"/>
</svg>
