<svg width="259" height="112" viewBox="0 0 259 112" fill="none" xmlns="http://www.w3.org/2000/svg">
<path d="M195.97 23.2516C191.558 6.70955 177.458 13.0633 177.458 13.0633C176.543 13.4721 176 13.87 175.044 13.5822L171.903 12.6358C170.948 12.348 170.66 11.676 170.048 10.8306C170.048 10.8306 160.66 -2.58851 149.483 9.26224C138.306 21.113 137.765 37.5142 137.765 37.5142C137.415 41.4635 138.624 44.537 142.119 45.2623C145.614 45.9877 155.372 38.32 155.372 38.32C156.323 37.6745 157.464 37.4611 158.559 37.7239L175.441 42.8108C176.51 43.2056 177.403 44.0428 177.934 45.1477C177.934 45.1477 182.967 57.2484 186.337 58.6035C189.708 59.9586 192.091 57.9969 193.548 54.3401C193.547 54.3223 200.401 39.7996 195.97 23.2516ZM163.867 25.9887L159.825 24.7707L158.796 29.0889C158.037 29.3728 157.217 29.3892 156.447 29.1359C156.093 29.0498 155.757 28.8863 155.46 28.6551C155.163 28.4239 154.909 28.1295 154.715 27.7891L155.728 23.5365L151.908 22.3853C151.659 21.6994 151.61 20.9459 151.767 20.2306C151.921 19.3146 152.318 18.4725 152.908 17.8126L156.95 19.0306L158.018 14.5486C158.73 14.4099 159.463 14.4622 160.155 14.7013C160.866 14.9433 161.527 15.3413 162.098 15.8717L161.051 20.2663L164.867 21.416C165.128 22.1523 165.206 22.9521 165.091 23.7304C164.855 24.5841 164.435 25.3593 163.867 25.9887ZM179.268 35.8954C178.635 35.7047 178.066 35.3101 177.633 34.7616C177.2 34.2132 176.921 33.5354 176.834 32.814C176.746 32.0926 176.853 31.3601 177.14 30.7089C177.428 30.0578 177.883 29.5174 178.449 29.156C179.015 28.7946 179.665 28.6285 180.319 28.6786C180.972 28.7287 181.599 28.9929 182.12 29.4376C182.641 29.8824 183.032 30.4878 183.245 31.1773C183.457 31.8668 183.481 32.6094 183.314 33.3112C183.205 33.7789 183.013 34.2173 182.75 34.6012C182.487 34.9851 182.158 35.3069 181.782 35.5481C181.406 35.7893 180.99 35.9451 180.558 36.0065C180.126 36.068 179.687 36.0339 179.266 35.9063L179.268 35.8954ZM181.594 26.1345C180.961 25.9438 180.392 25.5492 179.959 25.0007C179.525 24.4523 179.247 23.7745 179.16 23.0531C179.072 22.3317 179.178 21.5992 179.466 20.9481C179.753 20.2969 180.209 19.7565 180.775 19.3951C181.34 19.0337 181.991 18.8676 182.645 18.9177C183.298 18.9678 183.925 19.232 184.446 19.6768C184.966 20.1215 185.358 20.7269 185.57 21.4164C185.783 22.1059 185.807 22.8485 185.64 23.5503C185.53 24.0174 185.338 24.455 185.075 24.8382C184.812 25.2214 184.483 25.5425 184.107 25.7831C183.731 26.0237 183.315 26.1791 182.884 26.2404C182.452 26.3016 182.014 26.2675 181.593 26.1399L181.594 26.1345ZM188.312 33.7755C187.679 33.5848 187.11 33.1903 186.676 32.6418C186.243 32.0933 185.965 31.4155 185.877 30.6942C185.789 29.9728 185.896 29.2402 186.183 28.5891C186.471 27.938 186.926 27.3976 187.492 27.0362C188.058 26.6748 188.709 26.5086 189.362 26.5588C190.015 26.6089 190.642 26.873 191.163 27.3178C191.684 27.7626 192.075 28.368 192.288 29.0575C192.5 29.747 192.525 30.4896 192.357 31.1914C192.248 31.658 192.056 32.0952 191.793 32.4781C191.53 32.861 191.202 33.1821 190.826 33.4228C190.451 33.6635 190.036 33.8192 189.605 33.8809C189.174 33.9426 188.736 33.9092 188.315 33.7825L188.312 33.7755Z" fill="#961E82"/>
<path d="M235.802 19.87C225.019 7.57268 215.203 20.6074 215.203 20.6074C214.564 21.4504 214.25 22.088 213.286 22.3363L210.116 23.1529C209.152 23.4012 208.617 22.9591 207.725 22.5336C207.725 22.5336 193.844 15.6148 188.898 31.9698C183.952 48.3247 190.299 63.104 190.299 63.104C191.633 66.7784 193.981 68.8581 197.371 67.6601C200.762 66.4621 206.195 54.5507 206.195 54.5507C206.767 53.4795 207.686 52.6906 208.763 52.3468L225.8 47.9581C226.909 47.7445 228.047 48.0143 228.976 48.7113C228.976 48.7113 238.458 56.7573 242.001 56.1809C245.544 55.6045 246.834 52.6168 246.6 48.6184C246.592 48.6032 246.605 32.1623 235.802 19.87ZM208.57 39.1826L204.491 40.2334L205.379 44.591C204.827 45.2409 204.109 45.687 203.323 45.8686C202.974 45.9787 202.61 46.0107 202.251 45.9629C201.892 45.915 201.545 45.7881 201.232 45.5897L200.358 41.2982L196.502 42.2914C195.997 41.8159 195.64 41.176 195.481 40.4613C195.236 39.5708 195.236 38.6176 195.483 37.7241L199.562 36.6734L198.64 32.1505C199.212 31.6531 199.882 31.3136 200.593 31.1604C201.322 31.0003 202.072 31.0044 202.797 31.1725L203.701 35.6072L207.551 34.6154C208.089 35.1283 208.49 35.7944 208.712 36.5427C208.859 37.421 208.811 38.3273 208.57 39.1826ZM226.304 39.8326C225.665 39.9972 224.998 39.948 224.387 39.6914C223.776 39.4347 223.248 38.9821 222.87 38.3907C222.492 37.7994 222.282 37.0959 222.265 36.3691C222.248 35.6424 222.426 34.9252 222.775 34.308C223.125 33.6909 223.631 33.2016 224.229 32.9021C224.828 32.6025 225.491 32.5062 226.137 32.6252C226.782 32.7442 227.38 33.0732 227.855 33.5707C228.329 34.0681 228.66 34.7117 228.804 35.4199C228.902 35.8908 228.915 36.3791 228.843 36.8567C228.77 37.3344 228.613 37.7919 228.381 38.2031C228.149 38.6142 227.846 38.9708 227.49 39.2524C227.134 39.5339 226.732 39.7349 226.306 39.8437L226.304 39.8326ZM224.298 29.9826C223.659 30.1471 222.992 30.0979 222.38 29.8413C221.769 29.5846 221.241 29.132 220.864 28.5406C220.486 27.9493 220.275 27.2458 220.258 26.5191C220.242 25.7924 220.419 25.0751 220.769 24.4579C221.118 23.8408 221.624 23.3515 222.223 23.052C222.821 22.7525 223.485 22.6561 224.13 22.7751C224.775 22.8941 225.373 23.2232 225.848 23.7206C226.323 24.2181 226.653 24.8616 226.798 25.5698C226.895 26.0404 226.907 26.5282 226.834 27.0053C226.761 27.4824 226.604 27.9393 226.372 28.3499C226.14 28.7604 225.837 29.1165 225.481 29.3976C225.125 29.6787 224.724 29.8794 224.299 29.9881L224.298 29.9826ZM233.414 33.2004C232.775 33.3649 232.108 33.3158 231.497 33.0591C230.885 32.8024 230.358 32.3498 229.98 31.7585C229.602 31.1671 229.392 30.4636 229.375 29.7369C229.358 29.0102 229.535 28.2929 229.885 27.6758C230.235 27.0586 230.741 26.5693 231.339 26.2698C231.937 25.9703 232.601 25.8739 233.246 25.9929C233.892 26.1119 234.49 26.441 234.964 26.9384C235.439 27.4359 235.77 28.0794 235.914 28.7876C236.011 29.2577 236.024 29.7451 235.951 30.2217C235.878 30.6984 235.721 31.1549 235.489 31.5653C235.258 31.9756 234.956 32.3316 234.601 32.6129C234.245 32.8943 233.844 33.0953 233.42 33.2046L233.414 33.2004Z" fill="white"/>
<path d="M19.872 103.811C17.184 103.811 14.688 103.395 12.384 102.563C10.112 101.699 8.128 100.483 6.432 98.915C4.768 97.347 3.472 95.491 2.544 93.347C1.616 91.203 1.152 88.835 1.152 86.243C1.152 83.651 1.616 81.283 2.544 79.139C3.472 76.995 4.768 75.139 6.432 73.571C8.128 72.003 10.112 70.803 12.384 69.971C14.688 69.107 17.184 68.675 19.872 68.675C23.168 68.675 26.08 69.251 28.608 70.403C31.168 71.555 33.28 73.219 34.944 75.395L27.792 81.779C26.8 80.531 25.696 79.571 24.48 78.899C23.296 78.195 21.952 77.843 20.448 77.843C19.264 77.843 18.192 78.035 17.232 78.419C16.272 78.803 15.44 79.363 14.736 80.099C14.064 80.835 13.536 81.731 13.152 82.787C12.768 83.811 12.576 84.963 12.576 86.243C12.576 87.523 12.768 88.691 13.152 89.747C13.536 90.771 14.064 91.651 14.736 92.387C15.44 93.123 16.272 93.683 17.232 94.067C18.192 94.451 19.264 94.643 20.448 94.643C21.952 94.643 23.296 94.307 24.48 93.635C25.696 92.931 26.8 91.955 27.792 90.707L34.944 97.091C33.28 99.235 31.168 100.899 28.608 102.083C26.08 103.235 23.168 103.811 19.872 103.811ZM37.9346 103.043V76.787H48.7346V88.643L57.8066 76.787H67.7906V103.043H56.9906V91.139L47.9666 103.043H37.9346ZM87.0645 103.811C84.9525 103.811 82.9525 103.523 81.0645 102.947C79.2085 102.371 77.5765 101.427 76.1685 100.115C74.7605 98.803 73.6565 97.075 72.8565 94.931C72.0565 92.787 71.6565 90.147 71.6565 87.011C71.6565 85.027 71.8325 83.187 72.1845 81.491C72.5365 79.763 73.0805 78.179 73.8165 76.739C74.5525 75.299 75.4965 74.035 76.6485 72.947C77.8005 71.827 79.1765 70.899 80.7765 70.163C82.3765 69.395 84.2005 68.819 86.2485 68.435L99.3045 66.083L100.745 74.963L89.7045 76.931C89.0005 77.059 88.2805 77.219 87.5445 77.411C86.8085 77.571 86.1045 77.811 85.4325 78.131C84.7605 78.419 84.1525 78.835 83.6085 79.379C83.0645 79.923 82.6325 80.627 82.3125 81.491C82.0245 82.355 81.8805 83.427 81.8805 84.707C81.8805 85.091 81.8965 85.411 81.9285 85.667C81.9605 85.923 81.9925 86.227 82.0245 86.579C82.0565 86.899 82.0725 87.411 82.0725 88.115L79.3365 85.715C80.1685 84.563 81.1125 83.587 82.1685 82.787C83.2245 81.955 84.4245 81.315 85.7685 80.867C87.1125 80.419 88.6325 80.195 90.3285 80.195C92.8885 80.195 95.0645 80.675 96.8565 81.635C98.6805 82.595 100.057 83.923 100.985 85.619C101.945 87.283 102.425 89.187 102.425 91.331C102.425 93.955 101.753 96.195 100.409 98.051C99.0645 99.907 97.2405 101.331 94.9365 102.323C92.6325 103.315 90.0085 103.811 87.0645 103.811ZM87.2565 95.795C88.0885 95.795 88.8085 95.619 89.4165 95.267C90.0245 94.883 90.5045 94.371 90.8565 93.731C91.2085 93.091 91.3845 92.371 91.3845 91.571C91.3845 90.739 91.2085 90.035 90.8565 89.459C90.5045 88.883 90.0085 88.435 89.3685 88.115C88.7605 87.795 88.0565 87.635 87.2565 87.635C86.4245 87.635 85.6885 87.795 85.0485 88.115C84.4085 88.435 83.9125 88.883 83.5605 89.459C83.2085 90.003 83.0325 90.659 83.0325 91.427C83.0325 92.259 83.2085 93.011 83.5605 93.683C83.9125 94.323 84.4085 94.835 85.0485 95.219C85.6885 95.603 86.4245 95.795 87.2565 95.795ZM106.195 103.043V69.443H131.779V78.227H114.883L117.331 75.779V103.043H106.195ZM135.539 103.043V69.443H146.674V86.915L158.243 69.443H168.899V103.043H157.763V85.619L146.243 103.043H135.539ZM177.555 94.259C179.539 94.771 181.091 94.947 182.211 94.787C183.331 94.595 184.323 93.907 185.187 92.723L186.819 90.419L187.779 89.363L197.523 69.443H208.467L194.979 94.739C193.507 97.491 191.731 99.635 189.651 101.171C187.603 102.675 185.331 103.539 182.835 103.763C180.339 103.987 177.699 103.539 174.915 102.419L177.555 94.259ZM187.635 98.243L171.987 69.443H183.939L193.779 90.419L187.635 98.243Z" fill="#961E82"/>
<path d="M17.7137 58L10.5457 49.648L11.8897 48.88L19.6337 58H17.7137ZM5.39374 58V41.296H6.99374V58H5.39374ZM6.48174 50.256V48.88H11.7297V50.256H6.48174ZM11.9857 49.808L10.5137 49.552L17.3617 41.296H19.1217L11.9857 49.808ZM23.5812 58V41.296H25.1812V55.536L37.0852 41.296H38.4932V58H36.8932V43.76L24.9892 58H23.5812ZM52.6897 58.16C51.3457 58.16 50.1511 57.9253 49.1057 57.456C48.0817 56.9867 47.2071 56.2933 46.4817 55.376C45.7777 54.4587 45.2337 53.328 44.8497 51.984C44.4657 50.6187 44.2737 49.0507 44.2737 47.28C44.2737 45.552 44.4444 44.0693 44.7857 42.832C45.1271 41.5733 45.5751 40.5173 46.1297 39.664C46.7057 38.7893 47.3564 38.0747 48.0817 37.52C48.8071 36.9653 49.5537 36.528 50.3217 36.208C51.1111 35.8667 51.8897 35.6107 52.6577 35.44L60.0497 33.68L60.3057 35.184L53.2657 36.816C52.7751 36.944 52.1991 37.1147 51.5377 37.328C50.8977 37.52 50.2364 37.8293 49.5537 38.256C48.8924 38.6613 48.2737 39.2373 47.6977 39.984C47.1431 40.7093 46.6844 41.648 46.3217 42.8C45.9804 43.952 45.8097 45.3813 45.8097 47.088C45.8097 47.408 45.8204 47.664 45.8417 47.856C45.8631 48.048 45.8844 48.2613 45.9057 48.496C45.9484 48.7093 45.9911 49.0293 46.0337 49.456L45.2977 49.072C45.4257 47.664 45.8417 46.4267 46.5457 45.36C47.2497 44.2933 48.1671 43.4613 49.2977 42.864C50.4284 42.2667 51.7084 41.968 53.1377 41.968C54.6951 41.968 56.0711 42.3093 57.2657 42.992C58.4817 43.6533 59.4311 44.592 60.1137 45.808C60.7964 47.0027 61.1377 48.3893 61.1377 49.968C61.1377 51.5467 60.7857 52.9547 60.0817 54.192C59.3991 55.4293 58.4177 56.4 57.1377 57.104C55.8791 57.808 54.3964 58.16 52.6897 58.16ZM52.9457 56.784C54.2257 56.784 55.3564 56.496 56.3377 55.92C57.3404 55.3227 58.1191 54.512 58.6737 53.488C59.2284 52.464 59.5057 51.3013 59.5057 50C59.5057 48.6987 59.2284 47.5573 58.6737 46.576C58.1191 45.5947 57.3404 44.8267 56.3377 44.272C55.3564 43.696 54.2151 43.408 52.9137 43.408C51.6337 43.408 50.4924 43.6853 49.4897 44.24C48.5084 44.7947 47.7404 45.5627 47.1857 46.544C46.6311 47.5253 46.3537 48.6667 46.3537 49.968C46.3537 51.2693 46.6311 52.432 47.1857 53.456C47.7617 54.48 48.5404 55.2907 49.5217 55.888C50.5244 56.4853 51.6657 56.784 52.9457 56.784ZM73.3057 58.128C71.6204 58.128 70.1271 57.7653 68.8257 57.04C67.5457 56.3147 66.5324 55.312 65.7857 54.032C65.0604 52.752 64.6977 51.2907 64.6977 49.648C64.6977 47.984 65.0391 46.5227 65.7217 45.264C66.4257 43.984 67.3857 42.9813 68.6017 42.256C69.8177 41.5307 71.1831 41.168 72.6977 41.168C74.2124 41.168 75.5671 41.52 76.7617 42.224C77.9777 42.928 78.9271 43.92 79.6097 45.2C80.3137 46.4587 80.6657 47.92 80.6657 49.584C80.6657 49.648 80.6551 49.7227 80.6337 49.808C80.6337 49.872 80.6337 49.9467 80.6337 50.032H65.8817V48.784H79.7697L79.1297 49.392C79.1511 48.0907 78.8737 46.928 78.2977 45.904C77.7431 44.8587 76.9857 44.048 76.0257 43.472C75.0657 42.8747 73.9564 42.576 72.6977 42.576C71.4604 42.576 70.3511 42.8747 69.3697 43.472C68.4097 44.048 67.6524 44.8587 67.0977 45.904C66.5431 46.928 66.2657 48.1013 66.2657 49.424V49.712C66.2657 51.0773 66.5644 52.2933 67.1617 53.36C67.7804 54.4053 68.6231 55.2267 69.6897 55.824C70.7564 56.4 71.9724 56.688 73.3377 56.688C74.4044 56.688 75.3964 56.496 76.3137 56.112C77.2524 55.728 78.0417 55.1413 78.6817 54.352L79.6097 55.408C78.8844 56.304 77.9671 56.9867 76.8577 57.456C75.7697 57.904 74.5857 58.128 73.3057 58.128ZM94.3097 58.128C92.8377 58.128 91.5044 57.7867 90.3097 57.104C89.1364 56.4213 88.1977 55.4507 87.4937 54.192C86.8111 52.912 86.4697 51.3973 86.4697 49.648C86.4697 47.8987 86.8111 46.3947 87.4937 45.136C88.1977 43.856 89.1364 42.8747 90.3097 42.192C91.5044 41.5093 92.8377 41.168 94.3097 41.168C95.8884 41.168 97.2964 41.5307 98.5337 42.256C99.7924 42.96 100.774 43.952 101.478 45.232C102.203 46.512 102.566 47.984 102.566 49.648C102.566 51.312 102.203 52.784 101.478 54.064C100.774 55.344 99.7924 56.3467 98.5337 57.072C97.2964 57.776 95.8884 58.128 94.3097 58.128ZM85.9257 64.208V41.296H87.4617V46.768L87.2057 49.68L87.5257 52.592V64.208H85.9257ZM94.2137 56.688C95.4937 56.688 96.6457 56.4 97.6697 55.824C98.6937 55.2267 99.4937 54.3947 100.07 53.328C100.667 52.2613 100.966 51.0347 100.966 49.648C100.966 48.24 100.667 47.0133 100.07 45.968C99.4937 44.9013 98.6937 44.08 97.6697 43.504C96.6457 42.9067 95.4937 42.608 94.2137 42.608C92.9337 42.608 91.7817 42.9067 90.7577 43.504C89.7551 44.08 88.9551 44.9013 88.3577 45.968C87.7817 47.0133 87.4937 48.24 87.4937 49.648C87.4937 51.0347 87.7817 52.2613 88.3577 53.328C88.9551 54.3947 89.7551 55.2267 90.7577 55.824C91.7817 56.4 92.9337 56.688 94.2137 56.688Z" fill="white"/>
</svg>
