<svg width="41" height="42" viewBox="0 0 41 42" fill="none" xmlns="http://www.w3.org/2000/svg">
<path d="M20.9424 0C15.6516 0.00610531 10.5793 2.17792 6.83819 6.03895C3.09708 9.89998 0.992732 15.1349 0.986816 20.5952C0.995681 26.0546 3.10098 31.2878 6.84145 35.1482C10.5819 39.0085 15.6525 41.1813 20.9424 41.1905C26.2349 41.1905 31.3107 39.0206 35.053 35.1583C38.7954 31.2959 40.8979 26.0574 40.8979 20.5952C40.8979 15.133 38.7954 9.89456 35.053 6.03221C31.3107 2.16985 26.2349 0 20.9424 0ZM33.0801 32.4795C31.9594 30.1465 30.2292 28.1831 28.0848 26.811C25.9404 25.4388 23.4671 24.7124 20.944 24.7138C18.4208 24.7152 15.9483 25.4442 13.8053 26.8187C11.6623 28.1932 9.93413 30.1585 8.81577 32.4927C5.83188 29.2988 4.16923 25.032 4.1797 20.5952C4.1797 16.007 5.94576 11.6067 9.08937 8.36229C12.233 5.11791 16.4966 3.29524 20.9424 3.29524C25.3881 3.29524 29.6517 5.11791 32.7953 8.36229C35.9389 11.6067 37.705 16.007 37.705 20.5952C37.715 25.0258 36.0567 29.287 33.0801 32.4795ZM20.9424 8.2381C19.5215 8.2381 18.1325 8.67294 16.9511 9.48763C15.7697 10.3023 14.8489 11.4603 14.3052 12.8151C13.7615 14.1698 13.6192 15.6606 13.8964 17.0988C14.1736 18.5371 14.8578 19.8582 15.8625 20.8951C16.8672 21.932 18.1473 22.6381 19.5408 22.9242C20.9344 23.2103 22.3788 23.0635 23.6915 22.5023C25.0042 21.9411 26.1262 20.9908 26.9156 19.7715C27.705 18.5523 28.1263 17.1188 28.1263 15.6524C28.1263 14.6787 27.9405 13.7146 27.5795 12.8151C27.2185 11.9155 26.6893 11.0982 26.0222 10.4097C25.3551 9.72121 24.5631 9.17508 23.6915 8.80247C22.8199 8.42987 21.8858 8.2381 20.9424 8.2381Z" fill="#00A3E4"/>
</svg>
