<svg width="42" height="30" viewBox="0 0 42 30" fill="none" xmlns="http://www.w3.org/2000/svg">
<path d="M37.2543 5.2232C31.2814 -4.46097 23.1991 2.28815 23.1991 2.28815C22.6737 2.72394 22.3907 3.08151 21.7097 3.08151L19.47 3.08151C18.789 3.08151 18.4746 2.70904 17.916 2.28815C17.916 2.28815 9.25416 -4.45352 4.11337 5.23437C-1.02743 14.9223 1.66511 25.4668 1.66511 25.4668C2.16914 28.048 3.53503 29.7726 5.96577 29.564C8.39652 29.3554 13.3826 22.6026 13.3826 22.6026C13.8877 22.0091 14.5975 21.6545 15.3655 21.6118H27.4025C28.1782 21.6581 28.9207 22.0197 29.4749 22.6212C29.4749 22.6212 35.0299 29.3591 37.4964 29.5752C39.9629 29.7912 41.1639 28.0853 41.4416 25.478C41.4376 25.4668 43.2412 14.9074 37.2543 5.2232ZM16.6718 13.1232H13.7898L13.9163 16.0695C13.471 16.3956 12.9351 16.5634 12.3819 16.55C12.1334 16.563 11.8826 16.5233 11.6443 16.4331C11.406 16.3429 11.1849 16.2041 10.9938 16.0248L10.8692 13.1232H8.14513C7.85452 12.7343 7.6821 12.2641 7.65209 11.7786C7.58295 11.166 7.68746 10.5537 7.95218 10.0206H10.8342L10.7028 6.96262C11.1449 6.73767 11.6362 6.63041 12.1357 6.64975C12.6476 6.66746 13.1557 6.79413 13.6295 7.02222L13.7583 10.0206H16.4789C16.7876 10.4391 16.9871 10.9334 17.0563 11.4509C17.0603 12.0395 16.9283 12.6136 16.6718 13.1232ZM28.6317 16.4755C28.1804 16.4755 27.7332 16.3335 27.3465 16.0674C26.9599 15.8014 26.6512 15.4233 26.4595 14.9809C26.2678 14.5385 26.2017 14.0517 26.2695 13.5821C26.3374 13.1125 26.5362 12.6811 26.8408 12.3425C27.1453 12.0039 27.542 11.7733 27.9806 11.6799C28.4192 11.5865 28.88 11.6344 29.3048 11.8177C29.7296 12.0009 30.0993 12.3112 30.3671 12.7094C30.635 13.1075 30.7889 13.5756 30.8095 14.0544C30.8245 14.3731 30.7801 14.689 30.6787 14.9838C30.5772 15.2786 30.4208 15.5466 30.2185 15.7723C30.0161 15.998 29.7718 16.1769 29.4995 16.2989C29.2272 16.4209 28.9324 16.4834 28.632 16.4829L28.6317 16.4755ZM28.3457 9.81573C27.8944 9.81573 27.4471 9.67374 27.0605 9.40771C26.6738 9.14168 26.3651 8.76357 26.1734 8.32118C25.9817 7.87879 25.9156 7.392 25.9835 6.92236C26.0514 6.45273 26.2501 6.02134 26.5547 5.68275C26.8593 5.34416 27.2559 5.11358 27.6945 5.02016C28.1331 4.92675 28.594 4.97469 29.0188 5.15793C29.4436 5.34118 29.8133 5.65149 30.0811 6.04963C30.3489 6.44777 30.5028 6.91585 30.5234 7.39469C30.538 7.71307 30.4932 8.02852 30.3915 8.3229C30.2899 8.61729 30.1334 8.88482 29.9311 9.11013C29.7287 9.33543 29.4845 9.51408 29.2125 9.63581C28.9404 9.75753 28.6459 9.81994 28.3458 9.81945L28.3457 9.81573ZM34.179 13.3914C33.7277 13.3914 33.2805 13.2494 32.8938 12.9834C32.5072 12.7174 32.1985 12.3393 32.0068 11.8969C31.8151 11.4545 31.749 10.9677 31.8168 10.4981C31.8847 10.0284 32.0835 9.59703 32.3881 9.25844C32.6926 8.91985 33.0893 8.68927 33.5279 8.59586C33.9665 8.50244 34.4273 8.55038 34.8521 8.73363C35.2769 8.91687 35.6466 9.22718 35.9145 9.62532C36.1823 10.0235 36.3362 10.4915 36.3568 10.9704C36.3714 11.2885 36.3266 11.6036 36.2252 11.8977C36.1238 12.1919 35.9676 12.4592 35.7656 12.6845C35.5636 12.9098 35.3199 13.0885 35.0482 13.2104C34.7766 13.3324 34.4825 13.3951 34.1827 13.3951L34.179 13.3914Z" fill="#961E82"/>
</svg>
